<svg version="1.1" id="Layer_1" xmlns="http://www.w3.org/2000/svg" xmlns:xlink="http://www.w3.org/1999/xlink" x="0px" y="0px"
	 width="100%" viewBox="0 0 1081 1081" enable-background="new 0 0 1081 1081" xml:space="preserve">
<path fill="#47704C" opacity="1.000000" stroke="none" 
	d="
M1.000000,382.000000 
	C1.000000,254.681290 1.000000,127.862587 1.000000,1.043885 
	C1.152019,1.029257 1.304038,1.001805 1.456057,1.001804 
	C361.581177,0.999995 721.706299,1.000000 1082.000000,1.000000 
	C1082.000000,181.089661 1082.000000,361.179382 1082.000000,541.269104 
	C1082.000000,721.414978 1082.000000,901.560913 1082.000000,1081.853394 
	C721.666687,1081.853394 361.333374,1081.853394 1.000000,1081.853394 
	C1.000000,848.778625 1.000000,615.639343 1.000000,382.000000 
M32.005451,608.348633 
	C32.684902,613.392761 33.154884,618.475586 34.078903,623.474548 
	C38.899864,649.555969 44.500011,675.443359 52.855305,700.679626 
	C65.017548,737.414246 80.773354,772.430908 100.751556,805.642578 
	C118.957451,835.907959 139.812515,864.157715 163.777573,889.976562 
	C176.963760,904.182861 191.113739,917.661133 205.967422,930.109497 
	C223.050522,944.426270 241.025894,957.762207 259.272095,970.587402 
	C285.820190,989.248047 314.491119,1004.316284 344.698792,1016.098083 
	C364.641541,1023.876282 384.998352,1030.744995 405.516998,1036.854858 
	C429.404419,1043.967896 453.860138,1048.822998 478.755768,1051.071899 
	C493.353333,1052.390747 507.932495,1054.400391 522.556213,1054.813110 
	C539.308838,1055.285767 556.107300,1054.501709 572.874756,1053.934692 
	C582.435303,1053.611572 592.072388,1053.270630 601.500977,1051.812622 
	C619.778992,1048.986450 637.985413,1045.623779 656.129211,1042.018677 
	C690.687927,1035.152100 723.612671,1023.121826 755.562866,1008.597473 
	C782.498474,996.352722 808.516785,982.166382 832.454407,964.671021 
	C850.086731,951.784119 867.388062,938.356506 883.991272,924.179443 
	C895.677063,914.201233 906.281311,902.873657 916.748474,891.574280 
	C927.498779,879.969238 937.936646,868.014099 947.728577,855.594971 
	C966.870178,831.317810 983.383240,805.251953 997.523926,777.766785 
	C1003.900940,765.371887 1009.910950,752.701965 1014.908020,739.703369 
	C1022.479187,720.009033 1029.855225,700.163757 1035.791504,679.935730 
	C1043.407593,653.983459 1048.906372,627.471619 1051.053955,600.397461 
	C1052.396851,583.466919 1054.652466,566.537537 1054.745239,549.597961 
	C1054.851074,530.278748 1053.275269,510.930054 1051.914307,491.630585 
	C1051.070923,479.671478 1049.979248,467.643677 1047.726562,455.890625 
	C1044.434814,438.717346 1040.190674,421.716187 1036.009521,404.726105 
	C1029.252686,377.269653 1019.000427,351.046570 1007.106201,325.456696 
	C993.364929,295.892822 977.499512,267.481171 957.768982,241.507339 
	C944.241699,223.699692 930.012756,206.330795 914.945190,189.817093 
	C902.785767,176.490662 889.322693,164.252121 875.663879,152.424881 
	C862.769409,141.259583 849.196838,130.798813 835.336426,120.844078 
	C806.289124,99.981850 774.942810,83.120491 742.096924,69.000946 
	C719.334229,59.215866 695.927551,51.315750 671.985535,45.046757 
	C648.497437,38.896633 624.728882,34.055225 600.493164,31.989828 
	C582.743958,30.477228 564.977295,29.086758 547.192566,28.115952 
	C540.289124,27.739111 533.312500,28.627748 526.372864,29.006872 
	C514.821411,29.637945 503.204376,29.749186 491.738861,31.117229 
	C473.675110,33.272560 455.615875,35.755089 437.729218,39.047104 
	C396.410950,46.651653 357.033112,60.457611 319.190552,78.497742 
	C292.924805,91.019028 268.034241,105.958733 244.238205,122.815392 
	C222.117569,138.485214 201.646820,156.035263 181.998795,174.602264 
	C176.101624,180.174973 170.583069,186.188477 165.259705,192.320068 
	C153.482513,205.885315 141.089920,219.033203 130.521469,233.500504 
	C118.073723,250.540390 106.875954,268.543427 95.882133,286.583466 
	C80.201752,312.313690 68.048279,339.783691 57.923122,368.142365 
	C45.154243,403.905548 35.827118,440.515381 32.051964,478.362976 
	C30.235048,496.578339 29.054667,514.869934 28.102291,533.153870 
	C27.548220,543.791138 27.521101,554.510681 28.146364,565.140869 
	C28.977297,579.267578 30.675407,593.343323 32.005451,608.348633 
z"/>
<path fill="#FAC205" opacity="1.000000" stroke="none" 
	d="
M32.003197,607.894775 
	C30.675407,593.343323 28.977297,579.267578 28.146364,565.140869 
	C27.521101,554.510681 27.548220,543.791138 28.102291,533.153870 
	C29.054667,514.869934 30.235048,496.578339 32.051964,478.362976 
	C35.827118,440.515381 45.154243,403.905548 57.923122,368.142365 
	C68.048279,339.783691 80.201752,312.313690 95.882133,286.583466 
	C106.875954,268.543427 118.073723,250.540390 130.521469,233.500504 
	C141.089920,219.033203 153.482513,205.885315 165.259705,192.320068 
	C170.583069,186.188477 176.101624,180.174973 181.998795,174.602264 
	C201.646820,156.035263 222.117569,138.485214 244.238205,122.815392 
	C268.034241,105.958733 292.924805,91.019028 319.190552,78.497742 
	C357.033112,60.457611 396.410950,46.651653 437.729218,39.047104 
	C455.615875,35.755089 473.675110,33.272560 491.738861,31.117229 
	C503.204376,29.749186 514.821411,29.637945 526.372864,29.006872 
	C533.312500,28.627748 540.289124,27.739111 547.192566,28.115952 
	C564.977295,29.086758 582.743958,30.477228 600.493164,31.989828 
	C624.728882,34.055225 648.497437,38.896633 671.985535,45.046757 
	C695.927551,51.315750 719.334229,59.215866 742.096924,69.000946 
	C774.942810,83.120491 806.289124,99.981850 835.336426,120.844078 
	C849.196838,130.798813 862.769409,141.259583 875.663879,152.424881 
	C889.322693,164.252121 902.785767,176.490662 914.945190,189.817093 
	C930.012756,206.330795 944.241699,223.699692 957.768982,241.507339 
	C977.499512,267.481171 993.364929,295.892822 1007.106201,325.456696 
	C1019.000427,351.046570 1029.252686,377.269653 1036.009521,404.726105 
	C1040.190674,421.716187 1044.434814,438.717346 1047.726562,455.890625 
	C1049.979248,467.643677 1051.070923,479.671478 1051.914307,491.630585 
	C1053.275269,510.930054 1054.851074,530.278748 1054.745239,549.597961 
	C1054.652466,566.537537 1052.396851,583.466919 1051.053955,600.397461 
	C1048.906372,627.471619 1043.407593,653.983459 1035.791504,679.935730 
	C1029.855225,700.163757 1022.479187,720.009033 1014.908020,739.703369 
	C1009.910950,752.701965 1003.900940,765.371887 997.523926,777.766785 
	C983.383240,805.251953 966.870178,831.317810 947.728577,855.594971 
	C937.936646,868.014099 927.498779,879.969238 916.748474,891.574280 
	C906.281311,902.873657 895.677063,914.201233 883.991272,924.179443 
	C867.388062,938.356506 850.086731,951.784119 832.454407,964.671021 
	C808.516785,982.166382 782.498474,996.352722 755.562866,1008.597473 
	C723.612671,1023.121826 690.687927,1035.152100 656.129211,1042.018677 
	C637.985413,1045.623779 619.778992,1048.986450 601.500977,1051.812622 
	C592.072388,1053.270630 582.435303,1053.611572 572.874756,1053.934692 
	C556.107300,1054.501709 539.308838,1055.285767 522.556213,1054.813110 
	C507.932495,1054.400391 493.353333,1052.390747 478.755768,1051.071899 
	C453.860138,1048.822998 429.404419,1043.967896 405.516998,1036.854858 
	C384.998352,1030.744995 364.641541,1023.876282 344.698792,1016.098083 
	C314.491119,1004.316284 285.820190,989.248047 259.272095,970.587402 
	C241.025894,957.762207 223.050522,944.426270 205.967422,930.109497 
	C191.113739,917.661133 176.963760,904.182861 163.777573,889.976562 
	C139.812515,864.157715 118.957451,835.907959 100.751556,805.642578 
	C80.773354,772.430908 65.017548,737.414246 52.855305,700.679626 
	C44.500011,675.443359 38.899864,649.555969 34.078903,623.474548 
	C33.154884,618.475586 32.684902,613.392761 32.003197,607.894775 
M201.794357,799.298035 
	C202.592117,800.375427 203.389877,801.452881 204.252563,802.737427 
	C204.252563,802.737427 204.458969,802.804626 204.809341,803.326050 
	C205.853043,804.582520 206.896744,805.838989 207.963562,807.036194 
	C207.963562,807.036194 207.904343,807.059387 208.186554,807.662720 
	C209.443604,809.146667 210.700638,810.630676 212.251297,812.719421 
	C219.193085,820.671448 225.874756,828.871460 233.151352,836.504333 
	C240.130493,843.825256 247.408447,850.933777 255.122818,857.465088 
	C268.291656,868.614624 281.531433,879.746277 295.414490,889.971619 
	C318.759521,907.166199 344.020020,921.256226 370.625641,932.759705 
	C383.537811,938.342590 396.619812,943.860535 410.111176,947.698608 
	C430.064575,953.375000 450.314117,958.254639 470.696655,962.100403 
	C486.802094,965.139221 503.260620,967.182983 519.628601,967.747559 
	C543.951721,968.586731 568.389709,969.027893 592.582397,964.997620 
	C607.444336,962.521729 622.406860,960.490479 637.118591,957.308777 
	C660.680603,952.213135 683.478149,944.615540 705.740906,935.230225 
	C727.127258,926.214233 747.663452,915.715271 767.271240,903.345886 
	C786.759705,891.051819 805.665955,877.907288 822.373962,861.988892 
	C837.327515,847.742126 852.628601,833.666138 865.978577,817.984375 
	C879.435242,802.177063 891.196655,784.832153 902.769653,767.537903 
	C919.915466,741.915649 932.701843,714.015381 943.048950,685.010193 
	C953.319397,656.220154 960.932068,626.775452 964.037537,596.293579 
	C965.522827,581.714417 967.506470,567.118164 967.780273,552.501831 
	C968.080566,536.470642 966.998413,520.384888 965.898193,504.365509 
	C965.088135,492.572418 963.954468,480.721375 961.777344,469.118988 
	C957.188965,444.666138 951.206543,420.546051 942.622192,397.103699 
	C931.632446,367.092499 917.615784,338.647583 900.393066,311.722382 
	C880.984314,281.379883 857.880066,254.144257 831.795532,229.411789 
	C825.602417,223.539719 818.693909,218.422195 811.818665,212.355301 
	C810.231628,211.204269 808.644592,210.053238 807.035522,208.961182 
	C807.035522,208.961182 807.094666,208.939636 806.794922,208.329605 
	C805.852844,207.388931 805.034668,206.263794 803.950073,205.535248 
	C788.178955,194.941223 772.566284,184.094452 756.528564,173.918167 
	C732.313660,158.553268 706.112671,147.243561 679.046631,138.004242 
	C654.373962,129.581924 629.202881,122.926216 603.227600,119.994781 
	C585.568787,118.001900 567.862915,116.239204 550.130249,115.162056 
	C540.579468,114.581917 530.905823,115.360764 521.327026,116.063194 
	C506.884766,117.122276 492.306030,117.687576 478.095245,120.209412 
	C457.512299,123.862030 436.933685,128.118317 416.845154,133.843201 
	C385.995697,142.634735 356.955292,155.946915 329.022614,171.862686 
	C296.188263,190.571396 266.805420,213.695267 239.872574,239.946243 
	C229.146149,250.401062 219.677704,262.177124 209.945633,273.614624 
	C193.621017,292.799927 179.762451,313.761993 167.744873,335.826569 
	C145.644394,376.403534 129.296066,419.157562 121.993347,464.988312 
	C119.179985,482.644501 116.302055,500.393219 115.289558,518.204163 
	C114.302589,535.566345 115.254395,553.082153 116.126411,570.491882 
	C116.750359,582.948975 117.849358,595.492981 120.160347,607.729309 
	C123.767029,626.826111 127.816513,645.908569 133.048172,664.614075 
	C142.684494,699.068115 157.381729,731.461731 176.072632,761.969482 
	C182.052353,771.729736 188.794250,781.023010 195.252899,790.737732 
	C195.252899,790.737732 195.459976,790.805359 195.794357,791.298035 
	C196.592117,792.375427 197.389877,793.452881 198.253082,794.737854 
	C198.253082,794.737854 198.459976,794.805359 198.794357,795.298035 
	C199.592133,796.375427 200.389893,797.452881 201.253082,798.737854 
	C201.253082,798.737854 201.459976,798.805359 201.794357,799.298035 
z"/>
<path fill="#47704C" opacity="1.000000" stroke="none" 
	d="
M812.114502,212.957581 
	C818.693909,218.422195 825.602417,223.539719 831.795532,229.411789 
	C857.880066,254.144257 880.984314,281.379883 900.393066,311.722382 
	C917.615784,338.647583 931.632446,367.092499 942.622192,397.103699 
	C951.206543,420.546051 957.188965,444.666138 961.777344,469.118988 
	C963.954468,480.721375 965.088135,492.572418 965.898193,504.365509 
	C966.998413,520.384888 968.080566,536.470642 967.780273,552.501831 
	C967.506470,567.118164 965.522827,581.714417 964.037537,596.293579 
	C960.932068,626.775452 953.319397,656.220154 943.048950,685.010193 
	C932.701843,714.015381 919.915466,741.915649 902.769653,767.537903 
	C891.196655,784.832153 879.435242,802.177063 865.978577,817.984375 
	C852.628601,833.666138 837.327515,847.742126 822.373962,861.988892 
	C805.665955,877.907288 786.759705,891.051819 767.271240,903.345886 
	C747.663452,915.715271 727.127258,926.214233 705.740906,935.230225 
	C683.478149,944.615540 660.680603,952.213135 637.118591,957.308777 
	C622.406860,960.490479 607.444336,962.521729 592.582397,964.997620 
	C568.389709,969.027893 543.951721,968.586731 519.628601,967.747559 
	C503.260620,967.182983 486.802094,965.139221 470.696655,962.100403 
	C450.314117,958.254639 430.064575,953.375000 410.111176,947.698608 
	C396.619812,943.860535 383.537811,938.342590 370.625641,932.759705 
	C344.020020,921.256226 318.759521,907.166199 295.414490,889.971619 
	C281.531433,879.746277 268.291656,868.614624 255.122818,857.465088 
	C247.408447,850.933777 240.130493,843.825256 233.151352,836.504333 
	C225.874756,828.871460 219.193085,820.671448 212.055099,812.054810 
	C210.540726,809.946533 209.222549,808.502930 207.904358,807.059387 
	C207.904343,807.059387 207.963562,807.036194 207.905334,806.709961 
	C206.717728,805.190674 205.588364,803.997620 204.458984,802.804626 
	C204.458969,802.804626 204.252563,802.737427 204.244232,802.283936 
	C203.310608,800.822021 202.385300,799.813660 201.459991,798.805359 
	C201.459976,798.805359 201.253082,798.737854 201.244492,798.284119 
	C200.310593,796.822021 199.385284,795.813721 198.459976,794.805359 
	C198.459976,794.805359 198.253082,794.737854 198.244476,794.284119 
	C197.310577,792.822083 196.385269,791.813721 195.459961,790.805359 
	C195.459976,790.805359 195.252899,790.737732 195.252991,790.259521 
	C194.195969,787.395081 193.464874,784.789673 192.030975,782.656799 
	C178.534256,762.580566 166.243591,741.866577 156.288086,719.745728 
	C134.287735,670.861633 121.776894,619.653931 119.206810,566.205261 
	C117.887535,538.769043 118.883965,511.295776 122.993683,483.989624 
	C131.294754,428.834747 148.697723,376.874146 177.109604,328.813782 
	C196.834534,295.447937 220.392258,264.996613 248.943054,238.631973 
	C260.184113,228.251678 271.455780,217.831772 283.426910,208.328552 
	C318.408447,180.558655 357.067841,159.197250 399.216400,144.377930 
	C439.192627,130.322388 480.268524,121.955315 522.730408,119.730629 
	C547.151794,118.451126 571.311218,119.734703 595.434265,122.665092 
	C626.794067,126.474564 657.454041,133.627594 686.983765,144.932831 
	C703.591675,151.291031 720.184143,157.920761 736.092102,165.820648 
	C758.928833,177.161316 780.418335,190.903381 800.836914,206.256393 
	C802.599121,207.581375 804.993774,208.065109 807.094666,208.939636 
	C807.094666,208.939636 807.035522,208.961182 807.114441,209.287994 
	C808.833740,210.729050 810.474121,211.843307 812.114502,212.957581 
M830.837158,524.378723 
	C830.355164,523.974854 829.873169,523.571045 828.755737,523.029724 
	C827.541626,522.671997 826.327454,522.314331 824.803223,521.323425 
	C821.906921,519.534790 819.010620,517.746094 815.791382,515.328552 
	C809.562683,511.868835 803.334045,508.409119 796.993591,504.237091 
	C796.534973,503.585327 796.222717,502.679230 795.596497,502.318909 
	C779.677307,493.159637 763.716980,484.072144 747.781555,474.941162 
	C733.406677,466.704376 719.039673,458.453888 704.693359,450.167603 
	C688.503296,440.816406 672.350891,431.400116 656.162354,422.046204 
	C641.537476,413.595856 626.884705,405.193878 612.246704,396.766144 
	C596.185181,387.518860 580.138550,378.245514 564.062927,369.022705 
	C549.693604,360.778870 535.263306,352.641205 520.914917,344.361328 
	C502.448761,333.705261 484.053253,322.926819 465.597992,312.251770 
	C448.422424,302.316864 431.210052,292.445618 414.010559,282.552063 
	C405.949188,277.914948 398.192413,273.518066 387.950256,274.765289 
	C373.288177,276.550690 362.890839,289.561646 362.903717,303.341797 
	C363.054047,464.293610 363.119293,625.245850 362.859253,786.197388 
	C362.824066,807.971130 385.509705,822.913696 405.373383,812.145569 
	C420.219513,804.097595 434.763306,795.489929 449.406952,787.070862 
	C465.614960,777.752380 481.767334,768.336975 497.973907,759.015930 
	C512.334351,750.756653 526.760986,742.612183 541.113220,734.338684 
	C559.726074,723.609436 578.285767,712.788086 596.884338,702.033936 
	C611.506653,693.578857 626.151306,685.162292 640.789490,676.734802 
	C656.851013,667.487732 672.907532,658.231995 688.983276,649.009583 
	C703.352844,640.765991 717.769714,632.604431 732.122131,624.331116 
	C750.734924,613.602051 769.314331,602.814636 787.889832,592.020935 
	C801.639343,584.031433 815.593933,576.362244 829.026550,567.869263 
	C842.286621,559.485413 844.420227,536.950989 831.950928,525.528076 
	C831.669678,525.335693 831.388367,525.143372 830.837158,524.378723 
z"/>
<path fill="#47704C" opacity="1.000000" stroke="none" 
	d="
M806.944824,208.634613 
	C804.993774,208.065109 802.599121,207.581375 800.836914,206.256393 
	C780.418335,190.903381 758.928833,177.161316 736.092102,165.820648 
	C720.184143,157.920761 703.591675,151.291031 686.983765,144.932831 
	C657.454041,133.627594 626.794067,126.474564 595.434265,122.665092 
	C571.311218,119.734703 547.151794,118.451126 522.730408,119.730629 
	C480.268524,121.955315 439.192627,130.322388 399.216400,144.377930 
	C357.067841,159.197250 318.408447,180.558655 283.426910,208.328552 
	C271.455780,217.831772 260.184113,228.251678 248.943054,238.631973 
	C220.392258,264.996613 196.834534,295.447937 177.109604,328.813782 
	C148.697723,376.874146 131.294754,428.834747 122.993683,483.989624 
	C118.883965,511.295776 117.887535,538.769043 119.206810,566.205261 
	C121.776894,619.653931 134.287735,670.861633 156.288086,719.745728 
	C166.243591,741.866577 178.534256,762.580566 192.030975,782.656799 
	C193.464874,784.789673 194.195969,787.395081 195.220261,790.155640 
	C188.794250,781.023010 182.052353,771.729736 176.072632,761.969482 
	C157.381729,731.461731 142.684494,699.068115 133.048172,664.614075 
	C127.816513,645.908569 123.767029,626.826111 120.160347,607.729309 
	C117.849358,595.492981 116.750359,582.948975 116.126411,570.491882 
	C115.254395,553.082153 114.302589,535.566345 115.289558,518.204163 
	C116.302055,500.393219 119.179985,482.644501 121.993347,464.988312 
	C129.296066,419.157562 145.644394,376.403534 167.744873,335.826569 
	C179.762451,313.761993 193.621017,292.799927 209.945633,273.614624 
	C219.677704,262.177124 229.146149,250.401062 239.872574,239.946243 
	C266.805420,213.695267 296.188263,190.571396 329.022614,171.862686 
	C356.955292,155.946915 385.995697,142.634735 416.845154,133.843201 
	C436.933685,128.118317 457.512299,123.862030 478.095245,120.209412 
	C492.306030,117.687576 506.884766,117.122276 521.327026,116.063194 
	C530.905823,115.360764 540.579468,114.581917 550.130249,115.162056 
	C567.862915,116.239204 585.568787,118.001900 603.227600,119.994781 
	C629.202881,122.926216 654.373962,129.581924 679.046631,138.004242 
	C706.112671,147.243561 732.313660,158.553268 756.528564,173.918167 
	C772.566284,184.094452 788.178955,194.941223 803.950073,205.535248 
	C805.034668,206.263794 805.852844,207.388931 806.944824,208.634613 
z"/>
<path fill="#47704C" opacity="1.000000" stroke="none" 
	d="
M811.966553,212.656433 
	C810.474121,211.843307 808.833740,210.729050 807.125488,209.258484 
	C808.644592,210.053238 810.231628,211.204269 811.966553,212.656433 
z"/>
<path fill="#47704C" opacity="1.000000" stroke="none" 
	d="
M208.045471,807.361084 
	C209.222549,808.502930 210.540726,809.946533 211.908295,811.752380 
	C210.700638,810.630676 209.443604,809.146667 208.045471,807.361084 
z"/>
<path fill="#47704C" opacity="1.000000" stroke="none" 
	d="
M204.634171,803.065308 
	C205.588364,803.997620 206.717728,805.190674 207.893784,806.739624 
	C206.896744,805.838989 205.853043,804.582520 204.634171,803.065308 
z"/>
<path fill="#47704C" opacity="1.000000" stroke="none" 
	d="
M195.627167,791.051697 
	C196.385269,791.813721 197.310577,792.822083 198.211761,794.180298 
	C197.389877,793.452881 196.592117,792.375427 195.627167,791.051697 
z"/>
<path fill="#47704C" opacity="1.000000" stroke="none" 
	d="
M198.627167,795.051697 
	C199.385284,795.813721 200.310593,796.822021 201.211777,798.180298 
	C200.389893,797.452881 199.592133,796.375427 198.627167,795.051697 
z"/>
<path fill="#47704C" opacity="1.000000" stroke="none" 
	d="
M201.627167,799.051697 
	C202.385300,799.813660 203.310608,800.822021 204.211792,802.180298 
	C203.389877,801.452881 202.592117,800.375427 201.627167,799.051697 
z"/>
<path fill="#FAC205" opacity="1.000000" stroke="none" 
	d="
M832.170715,526.003662 
	C844.420227,536.950989 842.286621,559.485413 829.026550,567.869263 
	C815.593933,576.362244 801.639343,584.031433 787.889832,592.020935 
	C769.314331,602.814636 750.734924,613.602051 732.122131,624.331116 
	C717.769714,632.604431 703.352844,640.765991 688.983276,649.009583 
	C672.907532,658.231995 656.851013,667.487732 640.789490,676.734802 
	C626.151306,685.162292 611.506653,693.578857 596.884338,702.033936 
	C578.285767,712.788086 559.726074,723.609436 541.113220,734.338684 
	C526.760986,742.612183 512.334351,750.756653 497.973907,759.015930 
	C481.767334,768.336975 465.614960,777.752380 449.406952,787.070862 
	C434.763306,795.489929 420.219513,804.097595 405.373383,812.145569 
	C385.509705,822.913696 362.824066,807.971130 362.859253,786.197388 
	C363.119293,625.245850 363.054047,464.293610 362.903717,303.341797 
	C362.890839,289.561646 373.288177,276.550690 387.950256,274.765289 
	C398.192413,273.518066 405.949188,277.914948 414.010559,282.552063 
	C431.210052,292.445618 448.422424,302.316864 465.597992,312.251770 
	C484.053253,322.926819 502.448761,333.705261 520.914917,344.361328 
	C535.263306,352.641205 549.693604,360.778870 564.062927,369.022705 
	C580.138550,378.245514 596.185181,387.518860 612.246704,396.766144 
	C626.884705,405.193878 641.537476,413.595856 656.162354,422.046204 
	C672.350891,431.400116 688.503296,440.816406 704.693359,450.167603 
	C719.039673,458.453888 733.406677,466.704376 747.781555,474.941162 
	C763.716980,484.072144 779.677307,493.159637 795.596497,502.318909 
	C796.222717,502.679230 796.534973,503.585327 796.984863,504.859161 
	C797.409546,506.301758 797.630676,507.452209 798.310608,507.889893 
	C803.154602,511.008179 808.092163,513.980957 813.167236,517.217102 
	C817.260742,518.941650 821.187012,520.449158 825.113342,521.956604 
	C826.327454,522.314331 827.541626,522.671997 829.107056,523.461060 
	C829.638916,524.594910 829.819458,525.297424 830.361694,526.000488 
	C831.205872,526.001831 831.688293,526.002747 832.170715,526.003662 
z"/>
<path fill="#FAC205" opacity="1.000000" stroke="none" 
	d="
M813.000000,517.000000 
	C808.092163,513.980957 803.154602,511.008179 798.310608,507.889893 
	C797.630676,507.452209 797.409546,506.301758 797.040710,505.215302 
	C803.334045,508.409119 809.562683,511.868835 815.628357,515.705505 
	C814.643555,516.388306 813.821777,516.694153 813.000000,517.000000 
z"/>
<path fill="#FAC205" opacity="1.000000" stroke="none" 
	d="
M813.167236,517.217163 
	C813.821777,516.694153 814.643555,516.388306 815.789795,516.019958 
	C819.010620,517.746094 821.906921,519.534790 824.958252,521.640015 
	C821.187012,520.449158 817.260742,518.941650 813.167236,517.217163 
z"/>
<path fill="#FAC205" opacity="1.000000" stroke="none" 
	d="
M830.000000,526.000000 
	C829.819458,525.297424 829.638916,524.594910 829.424744,523.529785 
	C829.873169,523.571045 830.355164,523.974854 830.780640,524.832275 
	C830.482727,525.523865 830.241394,525.761902 830.000000,526.000000 
z"/>
<path fill="#FAC205" opacity="1.000000" stroke="none" 
	d="
M830.361694,526.000488 
	C830.241394,525.761902 830.482727,525.523865 830.915649,525.118408 
	C831.388367,525.143372 831.669678,525.335693 832.060791,525.765869 
	C831.688293,526.002747 831.205872,526.001831 830.361694,526.000488 
z"/>
</svg>